<mxfile host="app.diagrams.net" agent="Mozilla/5.0 (Windows NT 10.0; Win64; x64) AppleWebKit/537.36 (KHTML, like Gecko) Chrome/139.0.0.0 Safari/537.36" version="28.1.0">
  <diagram name="PÃ¡gina-1" id="hdrdpMxAdyY_dBLwXBnL">
    <mxGraphModel dx="1348" dy="592" grid="1" gridSize="10" guides="1" tooltips="1" connect="1" arrows="1" fold="1" page="1" pageScale="1" pageWidth="827" pageHeight="1169" math="0" shadow="0">
      <root>
        <mxCell id="0" />
        <mxCell id="1" parent="0" />
        <mxCell id="5uw7YRnfpVK_pZFMg25H-1" value="Modficar Datos de Usuario" style="shape=umlFrame;whiteSpace=wrap;html=1;pointerEvents=0;width=210;height=30;" vertex="1" parent="1">
          <mxGeometry x="110" y="100" width="580" height="520" as="geometry" />
        </mxCell>
        <mxCell id="5uw7YRnfpVK_pZFMg25H-2" value="" style="shape=umlLifeline;perimeter=lifelinePerimeter;whiteSpace=wrap;html=1;container=1;dropTarget=0;collapsible=0;recursiveResize=0;outlineConnect=0;portConstraint=eastwest;newEdgeStyle={&quot;curved&quot;:0,&quot;rounded&quot;:0};participant=umlActor;" vertex="1" parent="1">
          <mxGeometry x="170" y="148" width="20" height="472" as="geometry" />
        </mxCell>
        <mxCell id="5uw7YRnfpVK_pZFMg25H-3" value=":SISTEMA" style="shape=umlLifeline;perimeter=lifelinePerimeter;whiteSpace=wrap;html=1;container=1;dropTarget=0;collapsible=0;recursiveResize=0;outlineConnect=0;portConstraint=eastwest;newEdgeStyle={&quot;curved&quot;:0,&quot;rounded&quot;:0};" vertex="1" parent="1">
          <mxGeometry x="520" y="148" width="100" height="472" as="geometry" />
        </mxCell>
        <mxCell id="5uw7YRnfpVK_pZFMg25H-8" value="" style="endArrow=classic;html=1;rounded=0;" edge="1" parent="1">
          <mxGeometry width="50" height="50" relative="1" as="geometry">
            <mxPoint x="180" y="240" as="sourcePoint" />
            <mxPoint x="569.5" y="240" as="targetPoint" />
            <Array as="points">
              <mxPoint x="380" y="240" />
            </Array>
          </mxGeometry>
        </mxCell>
        <mxCell id="5uw7YRnfpVK_pZFMg25H-9" value="listarUsuarios() : set&amp;lt;String&amp;gt;" style="text;html=1;align=center;verticalAlign=middle;resizable=0;points=[];autosize=1;strokeColor=none;fillColor=none;" vertex="1" parent="1">
          <mxGeometry x="270" y="210" width="180" height="30" as="geometry" />
        </mxCell>
        <mxCell id="5uw7YRnfpVK_pZFMg25H-11" value="" style="endArrow=classic;html=1;rounded=0;" edge="1" parent="1">
          <mxGeometry width="50" height="50" relative="1" as="geometry">
            <mxPoint x="180" y="290" as="sourcePoint" />
            <mxPoint x="569.5" y="290" as="targetPoint" />
            <Array as="points" />
          </mxGeometry>
        </mxCell>
        <mxCell id="5uw7YRnfpVK_pZFMg25H-12" value="seleccionarUsuario(nick : String) : DTUsuario" style="text;html=1;align=center;verticalAlign=middle;resizable=0;points=[];autosize=1;strokeColor=none;fillColor=none;" vertex="1" parent="1">
          <mxGeometry x="230" y="260" width="260" height="30" as="geometry" />
        </mxCell>
        <mxCell id="5uw7YRnfpVK_pZFMg25H-13" value="opt" style="shape=umlFrame;whiteSpace=wrap;html=1;pointerEvents=0;" vertex="1" parent="1">
          <mxGeometry x="140" y="320" width="480" height="200" as="geometry" />
        </mxCell>
        <mxCell id="5uw7YRnfpVK_pZFMg25H-14" value="[es organizador]" style="text;html=1;align=center;verticalAlign=middle;resizable=0;points=[];autosize=1;strokeColor=none;fillColor=none;" vertex="1" parent="1">
          <mxGeometry x="305" y="340" width="110" height="30" as="geometry" />
        </mxCell>
        <mxCell id="5uw7YRnfpVK_pZFMg25H-15" value="" style="endArrow=classic;html=1;rounded=0;" edge="1" parent="1" target="5uw7YRnfpVK_pZFMg25H-3">
          <mxGeometry width="50" height="50" relative="1" as="geometry">
            <mxPoint x="180" y="400" as="sourcePoint" />
            <mxPoint x="230" y="350" as="targetPoint" />
          </mxGeometry>
        </mxCell>
        <mxCell id="5uw7YRnfpVK_pZFMg25H-16" value="modifiarDatosOrganizdor()" style="text;html=1;align=center;verticalAlign=middle;resizable=0;points=[];autosize=1;strokeColor=none;fillColor=none;" vertex="1" parent="1">
          <mxGeometry x="280" y="378" width="160" height="30" as="geometry" />
        </mxCell>
        <mxCell id="5uw7YRnfpVK_pZFMg25H-17" value="" style="endArrow=none;dashed=1;html=1;dashPattern=1 3;strokeWidth=2;rounded=0;entryX=0.996;entryY=0.563;entryDx=0;entryDy=0;entryPerimeter=0;" edge="1" parent="1">
          <mxGeometry width="50" height="50" relative="1" as="geometry">
            <mxPoint x="141.92" y="430" as="sourcePoint" />
            <mxPoint x="619.9999999999999" y="431.49" as="targetPoint" />
            <Array as="points">
              <mxPoint x="391.92" y="431" />
            </Array>
          </mxGeometry>
        </mxCell>
        <mxCell id="5uw7YRnfpVK_pZFMg25H-18" value="[es asistente]" style="text;html=1;align=center;verticalAlign=middle;resizable=0;points=[];autosize=1;strokeColor=none;fillColor=none;" vertex="1" parent="1">
          <mxGeometry x="315" y="440" width="90" height="30" as="geometry" />
        </mxCell>
        <mxCell id="5uw7YRnfpVK_pZFMg25H-19" value="" style="endArrow=classic;html=1;rounded=0;" edge="1" parent="1" target="5uw7YRnfpVK_pZFMg25H-3">
          <mxGeometry width="50" height="50" relative="1" as="geometry">
            <mxPoint x="180" y="495" as="sourcePoint" />
            <mxPoint x="230" y="445" as="targetPoint" />
          </mxGeometry>
        </mxCell>
        <mxCell id="5uw7YRnfpVK_pZFMg25H-20" value="modificarDatosAsistente()" style="text;html=1;align=center;verticalAlign=middle;resizable=0;points=[];autosize=1;strokeColor=none;fillColor=none;" vertex="1" parent="1">
          <mxGeometry x="280" y="470" width="160" height="30" as="geometry" />
        </mxCell>
        <mxCell id="5uw7YRnfpVK_pZFMg25H-22" value="actualizarDatos()" style="text;html=1;align=center;verticalAlign=middle;resizable=0;points=[];autosize=1;strokeColor=none;fillColor=none;" vertex="1" parent="1">
          <mxGeometry x="304" y="540" width="110" height="30" as="geometry" />
        </mxCell>
        <mxCell id="5uw7YRnfpVK_pZFMg25H-26" value="" style="endArrow=classic;html=1;rounded=0;" edge="1" parent="1" target="5uw7YRnfpVK_pZFMg25H-3">
          <mxGeometry width="50" height="50" relative="1" as="geometry">
            <mxPoint x="180" y="570" as="sourcePoint" />
            <mxPoint x="230" y="520" as="targetPoint" />
          </mxGeometry>
        </mxCell>
      </root>
    </mxGraphModel>
  </diagram>
</mxfile>
